HIERARCHY
ROOT Hips
{
	OFFSET 0.000000 0.000000 0.000000
	CHANNELS 6 Xposition Yposition Zposition Yrotation Xrotation Zrotation
	JOINT Chest
	{
		OFFSET 0.000000 -0.009281 11.569106
		CHANNELS 3 Yrotation Xrotation Zrotation
		JOINT Chest2
		{
			OFFSET -0.000000 0.016865 9.269641
			CHANNELS 3 Yrotation Xrotation Zrotation
			JOINT Chest3
			{
				OFFSET -0.000000 0.000001 8.374491
				CHANNELS 3 Yrotation Xrotation Zrotation
				JOINT Chest4
				{
					OFFSET -0.000000 0.000001 8.374493
					CHANNELS 3 Yrotation Xrotation Zrotation
					JOINT Neck
					{
						OFFSET -0.000000 0.000002 12.152554
						CHANNELS 3 Yrotation Xrotation Zrotation
						JOINT Head
						{
							OFFSET -0.000000 0.040101 7.802319
							CHANNELS 3 Yrotation Xrotation Zrotation
							End Site
							{
								OFFSET -0.000000 0.020947 14.853096
							}
						}
					}
					JOINT RightCollar
					{
						OFFSET 2.894404 0.000001 6.791374
						CHANNELS 3 Yrotation Xrotation Zrotation
						JOINT RightShoulder
						{
							OFFSET 13.574684 0.000001 0.000000
							CHANNELS 3 Yrotation Xrotation Zrotation
							JOINT RightElbow
							{
								OFFSET 23.923903 0.000002 0.000000
								CHANNELS 3 Yrotation Xrotation Zrotation
								JOINT RightWrist
								{
									OFFSET 19.846718 0.012767 0.000000
									CHANNELS 3 Yrotation Xrotation Zrotation
									End Site
									{
										OFFSET 14.973145 0.000001 0.000000
									}
								}
							}
						}
					}
					JOINT LeftCollar
					{
						OFFSET -2.894404 0.000001 6.791374
						CHANNELS 3 Yrotation Xrotation Zrotation
						JOINT LeftShoulder
						{
							OFFSET -13.574684 -0.000001 0.000000
							CHANNELS 3 Yrotation Xrotation Zrotation
							JOINT LeftElbow
							{
								OFFSET -23.923903 -0.000002 0.000000
								CHANNELS 3 Yrotation Xrotation Zrotation
								JOINT LeftWrist
								{
									OFFSET -19.846718 0.012763 0.000000
									CHANNELS 3 Yrotation Xrotation Zrotation
									End Site
									{
										OFFSET -14.973145 -0.000001 0.000000
									}
								}
							}
						}
					}
				}
			}
		}
	}
	JOINT RightHip
	{
		OFFSET 9.469263 0.004643 0.045487
		CHANNELS 3 Yrotation Xrotation Zrotation
		JOINT RightKnee
		{
			OFFSET 0.000000 0.002661 -40.478676
			CHANNELS 3 Yrotation Xrotation Zrotation
			JOINT RightAnkle
			{
				OFFSET 0.000000 0.049106 -35.224068
				CHANNELS 3 Yrotation Xrotation Zrotation
				JOINT RightToe
				{
					OFFSET -0.000001 12.539529 -6.151390
					CHANNELS 3 Yrotation Xrotation Zrotation
					End Site
					{
						OFFSET -0.000001 5.044994 -1.291870
					}
				}
			}
		}
	}
	JOINT LeftHip
	{
		OFFSET -9.469263 0.004641 0.045487
		CHANNELS 3 Yrotation Xrotation Zrotation
		JOINT LeftKnee
		{
			OFFSET 0.000000 0.002661 -40.478676
			CHANNELS 3 Yrotation Xrotation Zrotation
			JOINT LeftAnkle
			{
				OFFSET 0.000000 0.049106 -35.224068
				CHANNELS 3 Yrotation Xrotation Zrotation
				JOINT LeftToe
				{
					OFFSET -0.000001 12.539529 -6.151390
					CHANNELS 3 Yrotation Xrotation Zrotation
					End Site
					{
						OFFSET -0.000001 5.044994 -1.291870
					}
				}
			}
		}
	}
}
MOTION
Frames: 15
Frame Time: 0.016667
-34.191147 41.943527 79.875862 -4.511214 1.620026 -104.664637 -2.212608 -4.323359 0.815555 -1.009938 -1.923086 0.344592 -1.009938 -1.923087 0.344591 -0.756298 -1.442889 0.255244 3.842726 -18.346679 -6.187417 5.023427 2.165671 -10.103282 9.328302 6.020928 -2.411426 46.189021 -21.141100 -10.609928 17.580043 -42.228502 47.428653 -26.722912 37.790023 68.323987 -6.522034 4.242742 -5.557851 -43.353789 -5.810391 12.869966 -41.955052 -58.033344 -19.834839 17.829661 19.877111 -58.253905 -10.696215 19.212398 -1.993546 21.955694 -68.745635 -27.739690 3.374632 -9.212086 15.420795 3.405733 5.367392 2.333158 -14.709258 8.066526 -9.811023 -2.140388 -27.965468 8.602878 6.867324 12.817481 10.337120 0.111670 0.100228 0.014866 
-34.131817 41.901901 79.940643 -4.472193 1.615630 -104.567478 -2.228127 -4.303615 0.796599 -1.013960 -1.917554 0.333045 -1.013960 -1.917554 0.333042 -0.759355 -1.438722 0.246577 3.886886 -18.426595 -6.202273 5.103715 2.019500 -10.115740 9.319964 6.057233 -2.407783 46.171993 -21.169427 -10.581495 17.609713 -42.178242 47.390725 -26.712590 37.774932 68.332054 -6.535706 4.254782 -5.515257 -43.344343 -5.844740 12.887326 -41.984128 -58.047428 -19.825145 17.862481 19.932433 -58.279559 -10.706157 19.770618 -1.408343 21.165969 -68.200723 -27.100837 2.682385 -7.945656 14.594135 2.691066 6.721896 1.884670 -14.629982 7.872504 -9.820638 -2.133537 -27.602181 8.501003 6.866038 12.661822 10.244234 0.104300 0.103730 0.009975 
-34.066612 41.865589 80.005363 -4.423650 1.630105 -104.456043 -2.264703 -4.283211 0.774162 -1.019020 -1.908504 0.320601 -1.019020 -1.908504 0.320598 -0.763193 -1.431917 0.237245 3.934747 -18.514814 -6.225177 5.188560 1.858026 -10.141836 9.312386 6.055307 -2.400749 46.160874 -21.175231 -10.536205 17.630265 -42.153663 47.357738 -26.735338 37.799629 68.313209 -6.541294 4.249769 -5.520924 -43.331570 -5.815800 12.937516 -42.031516 -58.088915 -19.789677 17.898538 20.019115 -58.305937 -10.808923 20.371048 -0.969012 20.199308 -67.632219 -26.592346 1.937512 -6.712992 14.241305 2.508600 7.606777 1.652830 -14.595679 7.676176 -9.872638 -2.101933 -27.214322 8.362741 6.882646 12.488809 10.308548 0.088922 0.101659 0.008570 
-34.000446 41.838394 80.069229 -4.365725 1.633864 -104.328756 -2.296342 -4.266976 0.750162 -1.021853 -1.898267 0.311787 -1.021853 -1.898267 0.311787 -0.765351 -1.424226 0.230643 3.984517 -18.607693 -6.262004 5.272617 1.687819 -10.192951 9.309626 6.053042 -2.408670 46.141288 -21.233969 -10.464726 17.681942 -42.076496 47.315695 -26.762717 37.831154 68.295437 -6.542998 4.252049 -5.496037 -43.322654 -5.806718 12.963434 -42.070755 -58.150666 -19.740609 17.914550 20.094495 -58.331373 -10.947425 20.963476 -0.687466 18.962181 -67.009162 -26.041903 1.251739 -5.502368 14.168210 2.697805 8.098335 1.575803 -14.564205 7.471875 -9.970011 -2.064591 -26.804589 8.229844 6.926894 12.308375 10.432120 0.057257 0.089762 0.005466 
-33.937416 41.813972 80.133423 -4.297157 1.599653 -104.199139 -2.295598 -4.257074 0.731908 -1.020786 -1.889730 0.307477 -1.020786 -1.889730 0.307478 -0.764570 -1.417816 0.227430 4.035940 -18.703119 -6.309767 5.356317 1.512861 -10.263689 9.317605 6.090346 -2.404632 46.118189 -21.287589 -10.458543 17.739849 -41.997334 47.296003 -26.765117 37.835973 68.295376 -6.547301 4.257650 -5.492150 -43.319136 -5.830705 12.967649 -42.092253 -58.173397 -19.710524 17.923651 20.139894 -58.355599 -11.035015 21.521938 -0.521764 17.558415 -66.258012 -25.427131 0.765756 -4.436893 13.913275 3.126195 8.296477 1.596248 -14.494203 7.261813 -10.075072 -2.021175 -26.385528 8.092278 6.999773 12.130371 10.469387 0.009374 0.066831 0.001545 
-33.876839 41.787807 80.199257 -4.227524 1.543636 -104.096652 -2.271222 -4.251338 0.730354 -1.016664 -1.885084 0.309264 -1.016664 -1.885085 0.309263 -0.761476 -1.414333 0.228791 4.083390 -18.801617 -6.357504 5.432953 1.332040 -10.335742 9.309647 6.112952 -2.413636 46.075377 -21.323507 -10.434337 17.796131 -41.963029 47.295122 -26.807190 37.888839 68.262837 -6.558125 4.268015 -5.470205 -43.328592 -5.878163 12.954831 -42.095491 -58.185992 -19.697248 17.949317 20.237420 -58.372388 -11.061921 22.055543 -0.409403 16.118613 -65.340349 -24.715110 0.023026 -3.483071 13.854982 3.831929 8.323236 1.731459 -14.400185 7.035195 -10.154475 -1.975794 -25.928394 7.953901 7.104155 11.942502 10.500443 -0.048781 0.035740 -0.001941 
-33.815742 41.768375 80.265579 -4.161589 1.495222 -103.984111 -2.256795 -4.252445 0.722836 -1.012629 -1.886634 0.305200 -1.012630 -1.886635 0.305199 -0.758461 -1.415487 0.225753 4.130910 -18.905832 -6.394355 5.513547 1.140783 -10.387896 9.301508 6.100699 -2.449386 46.020343 -21.335044 -10.364541 17.835372 -41.970785 47.309732 -26.877915 37.973717 68.209985 -6.560431 4.274017 -5.467107 -43.339415 -5.892007 12.958900 -42.097468 -58.149915 -19.710763 17.967870 20.255312 -58.386124 -11.104160 22.596031 -0.337270 14.910732 -64.301286 -24.097748 -0.552834 -2.717216 13.554311 4.530155 8.268517 1.847177 -14.315500 6.790106 -10.230998 -1.927993 -25.436115 7.789889 7.234518 11.736598 10.562783 -0.107328 0.004587 -0.005037 
-33.751053 41.758095 80.331589 -4.115487 1.459784 -103.898666 -2.260901 -4.269807 0.726938 -1.009732 -1.893493 0.307868 -1.009732 -1.893493 0.307867 -0.756277 -1.420633 0.227752 4.179900 -19.025140 -6.424336 5.599835 0.921709 -10.427109 9.294231 6.072550 -2.439908 45.990358 -21.296356 -10.329456 17.868591 -41.981273 47.325886 -26.946642 38.054341 68.162788 -6.554439 4.272286 -5.432977 -43.353034 -5.921491 12.932922 -42.080034 -58.084332 -19.758409 17.972611 20.198430 -58.392913 -11.176507 23.134146 -0.285652 13.959887 -63.190964 -23.594600 -1.030524 -2.036750 13.191201 5.167217 8.111068 1.923799 -14.240312 6.522420 -10.262136 -1.877738 -24.927125 7.610688 7.375978 11.518974 10.527978 -0.160738 -0.016513 -0.006542 
-33.686035 41.733559 80.397858 -4.070762 1.422971 -103.847439 -2.267299 -4.290358 0.738296 -1.007424 -1.902450 0.313116 -1.007424 -1.902450 0.313116 -0.754524 -1.427359 0.231681 4.227857 -19.164008 -6.438949 5.690124 0.666502 -10.438697 9.280245 6.015932 -2.432318 45.967842 -21.275295 -10.262640 17.899353 -41.971403 47.342616 -26.989897 38.093755 68.142461 -6.535633 4.255260 -5.417871 -43.376428 -5.918073 12.917839 -42.051344 -58.019991 -19.816841 17.996614 20.196960 -58.388173 -11.267040 23.669312 -0.290736 13.169798 -61.987389 -23.075536 -1.501975 -1.433785 12.925275 5.713041 7.829387 1.954095 -14.154708 6.261069 -10.238571 -1.840802 -24.411255 7.444710 7.507304 11.303305 10.639850 -0.191415 -0.030137 -0.001575 
-33.619801 41.711834 80.465500 -4.018523 1.388130 -103.787716 -2.271710 -4.300021 0.747106 -1.005225 -1.907666 0.316254 -1.005225 -1.907666 0.316255 -0.752861 -1.431274 0.234030 4.276988 -19.330694 -6.449518 5.785227 0.359832 -10.442818 9.265447 5.961397 -2.435346 45.940136 -21.304948 -10.174664 17.956274 -41.926730 47.341967 -27.045170 38.139322 68.109178 -6.520943 4.222752 -5.396793 -43.395344 -5.898212 12.911232 -42.026844 -57.954319 -19.865274 18.002867 20.164552 -58.394921 -11.369450 24.178583 -0.390086 12.444351 -60.656759 -22.503744 -1.839783 -0.966679 12.599052 6.110742 7.378180 1.924862 -14.047792 5.994121 -10.209198 -1.809787 -23.882889 7.293663 7.613592 11.089799 10.637107 -0.207427 -0.040256 -0.000796 
-33.551384 41.673134 80.536850 -3.961635 1.344827 -103.751550 -2.265480 -4.297098 0.767988 -1.002846 -1.909002 0.323155 -1.002846 -1.909001 0.323154 -0.751056 -1.432286 0.239212 4.325185 -19.523729 -6.458712 5.880350 0.004267 -10.445098 9.252967 5.923000 -2.403948 45.918040 -21.308460 -10.128490 18.041518 -41.879455 47.319752 -27.080810 38.155329 68.088626 -6.516786 4.196083 -5.366069 -43.401320 -5.889775 12.907105 -42.018241 -57.915155 -19.891017 17.996372 20.115447 -58.408103 -11.434722 24.646456 -0.499685 11.813674 -59.186376 -22.091709 -2.157199 -0.593457 12.384906 6.440993 6.735217 1.868992 -13.931156 5.730215 -10.149035 -1.772957 -23.350144 7.143506 7.698103 10.890477 10.675149 -0.204810 -0.060222 0.000222 
-33.477581 41.632248 80.612595 -3.905524 1.301756 -103.685967 -2.258420 -4.297631 0.774448 -0.999296 -1.908539 0.326384 -0.999296 -1.908538 0.326385 -0.748384 -1.431943 0.241646 4.377321 -19.739334 -6.470642 5.982902 -0.392971 -10.451608 9.246266 5.907412 -2.399133 45.889066 -21.326547 -10.077940 18.127950 -41.836965 47.294822 -27.104721 38.161394 68.074385 -6.520358 4.196919 -5.361452 -43.399244 -5.885753 12.915069 -42.027954 -57.884610 -19.889424 17.996049 20.084496 -58.417980 -11.509571 25.061970 -0.674847 11.286712 -57.614695 -21.961976 -2.513334 -0.299260 12.414756 6.751207 5.936873 1.805141 -13.795396 5.440200 -10.083051 -1.730227 -22.782550 6.966160 7.747507 10.654608 10.653816 -0.188145 -0.056487 0.000577 
-33.402729 41.574818 80.692200 -3.844962 1.250655 -103.631653 -2.248827 -4.293530 0.786572 -0.994040 -1.905375 0.333206 -0.994040 -1.905376 0.333207 -0.744423 -1.429580 0.246784 4.434673 -19.979550 -6.485583 6.095232 -0.835603 -10.462569 9.244057 5.885770 -2.397662 45.880358 -21.311867 -10.062247 18.175752 -41.823543 47.294033 -27.151240 38.207532 68.043137 -6.522620 4.195661 -5.325093 -43.393674 -5.913756 12.876525 -42.048731 -57.830481 -19.869637 17.993664 20.074370 -58.421729 -11.580420 25.447239 -0.857414 10.911171 -55.985090 -22.154443 -2.782240 -0.087313 12.455103 6.987513 4.950434 1.716274 -13.638740 5.152854 -9.946783 -1.680708 -22.207301 6.771843 7.776584 10.419510 10.623624 -0.162625 -0.050927 0.003056 
-33.326145 41.514900 80.774635 -3.775544 1.214521 -103.554055 -2.239965 -4.285660 0.788161 -0.986356 -1.900997 0.334663 -0.986356 -1.900997 0.334664 -0.738658 -1.426293 0.247906 4.491571 -20.240808 -6.506161 6.206056 -1.317289 -10.484608 9.229151 5.867896 -2.367881 45.888042 -21.285765 -10.068534 18.226624 -41.784693 47.284515 -27.143650 38.200801 68.051476 -6.539689 4.217347 -5.317889 -43.399135 -5.919752 12.890315 -42.056415 -57.808897 -19.852187 17.990577 20.061280 -58.420056 -11.695855 25.821614 -1.118445 10.618505 -54.355708 -22.382871 -2.989340 0.111613 12.512157 7.126226 3.741364 1.604537 -13.467543 4.858518 -9.796456 -1.650258 -21.606948 6.594927 7.791123 10.182829 10.470727 -0.134150 -0.045659 0.003862 
-33.249054 41.450432 80.858284 -3.683191 1.188689 -103.507125 -2.235364 -4.269907 0.797395 -0.980533 -1.895693 0.337445 -0.980533 -1.895694 0.337445 -0.734286 -1.422318 0.250020 4.549647 -20.513227 -6.522804 6.320762 -1.819579 -10.499757 9.219547 5.888917 -2.367676 45.888455 -21.298794 -10.064138 18.294172 -41.735287 47.261911 -27.147717 38.207320 68.048328 -6.542090 4.220091 -5.330249 -43.414468 -5.895798 12.907394 -42.040853 -57.798584 -19.864430 17.987098 20.086000 -58.400740 -11.835891 26.232084 -1.416445 10.397853 -52.716011 -22.485171 -3.098848 0.186816 12.367523 7.122540 2.308184 1.468467 -13.302717 4.578240 -9.619006 -1.618548 -20.971836 6.421691 7.794217 9.928810 10.305042 -0.099960 -0.040250 0.004189 
